<mxfile host="app.diagrams.net" modified="2024-03-01T13:40:07.904Z" agent="Mozilla/5.0 (X11; FreeBSD amd64; rv:120.0) Gecko/20100101 Firefox/120.0" etag="RPtDv33hqHTw0r1n9vLT" version="23.1.8" type="github">
  <diagram name="Page-1" id="c4acf3e9-155e-7222-9cf6-157b1a14988f">
    <mxGraphModel dx="3134" dy="-267" grid="1" gridSize="10" guides="1" tooltips="1" connect="1" arrows="1" fold="1" page="1" pageScale="1" pageWidth="850" pageHeight="1100" background="none" math="0" shadow="0">
      <root>
        <mxCell id="0" />
        <mxCell id="1" parent="0" />
        <mxCell id="9YRtBNZHPSvyfo0YGIun-40" value="" style="rounded=0;whiteSpace=wrap;html=1;" vertex="1" parent="1">
          <mxGeometry x="-680" y="1400" width="360" height="290" as="geometry" />
        </mxCell>
        <mxCell id="9YRtBNZHPSvyfo0YGIun-1" value="frame" style="shape=umlFrame;whiteSpace=wrap;html=1;rounded=0;shadow=0;comic=0;labelBackgroundColor=none;strokeWidth=1;fontFamily=Verdana;fontSize=10;align=center;" vertex="1" parent="1">
          <mxGeometry x="230" y="2340" width="160" height="90" as="geometry" />
        </mxCell>
        <mxCell id="9YRtBNZHPSvyfo0YGIun-2" value="Classname" style="swimlane;html=1;fontStyle=0;childLayout=stackLayout;horizontal=1;startSize=26;fillColor=none;horizontalStack=0;resizeParent=1;resizeLast=0;collapsible=1;marginBottom=0;swimlaneFillColor=#ffffff;rounded=0;shadow=0;comic=0;labelBackgroundColor=none;strokeWidth=1;fontFamily=Verdana;fontSize=10;align=center;" vertex="1" parent="1">
          <mxGeometry x="200" y="2070" width="160" height="110" as="geometry" />
        </mxCell>
        <mxCell id="9YRtBNZHPSvyfo0YGIun-3" value="+ field: type" style="text;html=1;strokeColor=none;fillColor=none;align=left;verticalAlign=top;spacingLeft=4;spacingRight=4;whiteSpace=wrap;overflow=hidden;rotatable=0;points=[[0,0.5],[1,0.5]];portConstraint=eastwest;" vertex="1" parent="9YRtBNZHPSvyfo0YGIun-2">
          <mxGeometry y="26" width="160" height="26" as="geometry" />
        </mxCell>
        <mxCell id="9YRtBNZHPSvyfo0YGIun-4" value="+ field: type" style="text;html=1;strokeColor=none;fillColor=none;align=left;verticalAlign=top;spacingLeft=4;spacingRight=4;whiteSpace=wrap;overflow=hidden;rotatable=0;points=[[0,0.5],[1,0.5]];portConstraint=eastwest;" vertex="1" parent="9YRtBNZHPSvyfo0YGIun-2">
          <mxGeometry y="52" width="160" height="26" as="geometry" />
        </mxCell>
        <mxCell id="9YRtBNZHPSvyfo0YGIun-5" value="+ field: type" style="text;html=1;strokeColor=none;fillColor=none;align=left;verticalAlign=top;spacingLeft=4;spacingRight=4;whiteSpace=wrap;overflow=hidden;rotatable=0;points=[[0,0.5],[1,0.5]];portConstraint=eastwest;" vertex="1" parent="9YRtBNZHPSvyfo0YGIun-2">
          <mxGeometry y="78" width="160" height="26" as="geometry" />
        </mxCell>
        <mxCell id="9YRtBNZHPSvyfo0YGIun-6" value="Classname" style="swimlane;html=1;fontStyle=0;childLayout=stackLayout;horizontal=1;startSize=26;fillColor=none;horizontalStack=0;resizeParent=1;resizeLast=0;collapsible=1;marginBottom=0;swimlaneFillColor=#ffffff;rounded=0;shadow=0;comic=0;labelBackgroundColor=none;strokeWidth=1;fontFamily=Verdana;fontSize=10;align=center;" vertex="1" parent="1">
          <mxGeometry x="420" y="2070" width="160" height="110" as="geometry" />
        </mxCell>
        <mxCell id="9YRtBNZHPSvyfo0YGIun-7" value="+ field: type" style="text;html=1;strokeColor=none;fillColor=none;align=left;verticalAlign=top;spacingLeft=4;spacingRight=4;whiteSpace=wrap;overflow=hidden;rotatable=0;points=[[0,0.5],[1,0.5]];portConstraint=eastwest;" vertex="1" parent="9YRtBNZHPSvyfo0YGIun-6">
          <mxGeometry y="26" width="160" height="26" as="geometry" />
        </mxCell>
        <mxCell id="9YRtBNZHPSvyfo0YGIun-8" value="+ field: type" style="text;html=1;strokeColor=none;fillColor=none;align=left;verticalAlign=top;spacingLeft=4;spacingRight=4;whiteSpace=wrap;overflow=hidden;rotatable=0;points=[[0,0.5],[1,0.5]];portConstraint=eastwest;" vertex="1" parent="9YRtBNZHPSvyfo0YGIun-6">
          <mxGeometry y="52" width="160" height="26" as="geometry" />
        </mxCell>
        <mxCell id="9YRtBNZHPSvyfo0YGIun-9" value="+ field: type" style="text;html=1;strokeColor=none;fillColor=none;align=left;verticalAlign=top;spacingLeft=4;spacingRight=4;whiteSpace=wrap;overflow=hidden;rotatable=0;points=[[0,0.5],[1,0.5]];portConstraint=eastwest;" vertex="1" parent="9YRtBNZHPSvyfo0YGIun-6">
          <mxGeometry y="78" width="160" height="26" as="geometry" />
        </mxCell>
        <mxCell id="9YRtBNZHPSvyfo0YGIun-10" style="edgeStyle=orthogonalEdgeStyle;rounded=0;html=1;dashed=1;labelBackgroundColor=none;startFill=0;endArrow=open;endFill=0;endSize=10;fontFamily=Verdana;fontSize=10;" edge="1" parent="1" source="9YRtBNZHPSvyfo0YGIun-11" target="9YRtBNZHPSvyfo0YGIun-12">
          <mxGeometry relative="1" as="geometry">
            <Array as="points" />
          </mxGeometry>
        </mxCell>
        <mxCell id="9YRtBNZHPSvyfo0YGIun-11" value="&lt;p style=&quot;margin:0px;margin-top:4px;text-align:center;&quot;&gt;&lt;i&gt;&amp;lt;&amp;lt;Interface&amp;gt;&amp;gt;&lt;/i&gt;&lt;br/&gt;&lt;b&gt;Interface&lt;/b&gt;&lt;/p&gt;&lt;hr size=&quot;1&quot;/&gt;&lt;p style=&quot;margin:0px;margin-left:4px;&quot;&gt;+ field1: Type&lt;br/&gt;+ field2: Type&lt;/p&gt;&lt;hr size=&quot;1&quot;/&gt;&lt;p style=&quot;margin:0px;margin-left:4px;&quot;&gt;+ method1(Type): Type&lt;br/&gt;+ method2(Type, Type): Type&lt;/p&gt;" style="verticalAlign=top;align=left;overflow=fill;fontSize=12;fontFamily=Helvetica;html=1;rounded=0;shadow=0;comic=0;labelBackgroundColor=none;strokeWidth=1" vertex="1" parent="1">
          <mxGeometry x="440" y="2320" width="190" height="140" as="geometry" />
        </mxCell>
        <mxCell id="9YRtBNZHPSvyfo0YGIun-12" value="&amp;laquo;interface&amp;raquo;&lt;br&gt;&lt;b&gt;Name&lt;/b&gt;" style="html=1;rounded=0;shadow=0;comic=0;labelBackgroundColor=none;strokeWidth=1;fontFamily=Verdana;fontSize=10;align=center;" vertex="1" parent="1">
          <mxGeometry x="560" y="2210" width="110" height="50" as="geometry" />
        </mxCell>
        <mxCell id="9YRtBNZHPSvyfo0YGIun-13" style="edgeStyle=orthogonalEdgeStyle;rounded=0;html=1;labelBackgroundColor=none;startFill=0;endArrow=open;endFill=0;endSize=10;fontFamily=Verdana;fontSize=10;dashed=1;" edge="1" parent="1" source="9YRtBNZHPSvyfo0YGIun-15" target="9YRtBNZHPSvyfo0YGIun-2">
          <mxGeometry relative="1" as="geometry" />
        </mxCell>
        <mxCell id="9YRtBNZHPSvyfo0YGIun-14" style="edgeStyle=orthogonalEdgeStyle;rounded=0;html=1;exitX=1;exitY=0.75;dashed=1;labelBackgroundColor=none;startFill=0;endArrow=open;endFill=0;endSize=10;fontFamily=Verdana;fontSize=10;" edge="1" parent="1" source="9YRtBNZHPSvyfo0YGIun-15" target="9YRtBNZHPSvyfo0YGIun-6">
          <mxGeometry relative="1" as="geometry">
            <Array as="points">
              <mxPoint x="380" y="2230" />
              <mxPoint x="380" y="2180" />
            </Array>
          </mxGeometry>
        </mxCell>
        <mxCell id="9YRtBNZHPSvyfo0YGIun-15" value="&lt;p style=&quot;margin:0px;margin-top:4px;text-align:center;&quot;&gt;&lt;i&gt;&amp;lt;&amp;lt;Interface&amp;gt;&amp;gt;&lt;/i&gt;&lt;br/&gt;&lt;b&gt;Interface&lt;/b&gt;&lt;/p&gt;&lt;hr size=&quot;1&quot;/&gt;&lt;p style=&quot;margin:0px;margin-left:4px;&quot;&gt;+ field1: Type&lt;br/&gt;+ field2: Type&lt;/p&gt;&lt;hr size=&quot;1&quot;/&gt;&lt;p style=&quot;margin:0px;margin-left:4px;&quot;&gt;+ method1(Type): Type&lt;br/&gt;+ method2(Type, Type): Type&lt;/p&gt;" style="verticalAlign=top;align=left;overflow=fill;fontSize=12;fontFamily=Helvetica;html=1;rounded=0;shadow=0;comic=0;labelBackgroundColor=none;strokeWidth=1" vertex="1" parent="1">
          <mxGeometry x="-90" y="2070" width="190" height="140" as="geometry" />
        </mxCell>
        <mxCell id="9YRtBNZHPSvyfo0YGIun-16" style="edgeStyle=orthogonalEdgeStyle;rounded=0;html=1;dashed=1;labelBackgroundColor=none;startFill=0;endArrow=open;endFill=0;endSize=10;fontFamily=Verdana;fontSize=10;" edge="1" parent="1" source="9YRtBNZHPSvyfo0YGIun-19" target="9YRtBNZHPSvyfo0YGIun-2">
          <mxGeometry relative="1" as="geometry">
            <Array as="points">
              <mxPoint x="170" y="2328" />
              <mxPoint x="170" y="2158" />
            </Array>
          </mxGeometry>
        </mxCell>
        <mxCell id="9YRtBNZHPSvyfo0YGIun-17" style="edgeStyle=orthogonalEdgeStyle;rounded=0;html=1;dashed=1;labelBackgroundColor=none;startFill=0;endArrow=open;endFill=0;endSize=10;fontFamily=Verdana;fontSize=10;" edge="1" parent="1" source="9YRtBNZHPSvyfo0YGIun-19" target="9YRtBNZHPSvyfo0YGIun-6">
          <mxGeometry relative="1" as="geometry">
            <Array as="points">
              <mxPoint x="200" y="2348" />
              <mxPoint x="200" y="2248" />
              <mxPoint x="400" y="2248" />
              <mxPoint x="400" y="2198" />
            </Array>
          </mxGeometry>
        </mxCell>
        <mxCell id="9YRtBNZHPSvyfo0YGIun-18" style="edgeStyle=orthogonalEdgeStyle;rounded=0;html=1;dashed=1;labelBackgroundColor=none;startFill=0;endArrow=open;endFill=0;endSize=10;fontFamily=Verdana;fontSize=10;" edge="1" parent="1" source="9YRtBNZHPSvyfo0YGIun-19" target="9YRtBNZHPSvyfo0YGIun-11">
          <mxGeometry relative="1" as="geometry">
            <Array as="points">
              <mxPoint x="180" y="2238" />
              <mxPoint x="180" y="2198" />
            </Array>
          </mxGeometry>
        </mxCell>
        <mxCell id="9YRtBNZHPSvyfo0YGIun-19" value="&lt;p style=&quot;margin:0px;margin-top:4px;text-align:center;&quot;&gt;&lt;i&gt;&amp;lt;&amp;lt;Interface&amp;gt;&amp;gt;&lt;/i&gt;&lt;br/&gt;&lt;b&gt;Interface&lt;/b&gt;&lt;/p&gt;&lt;hr size=&quot;1&quot;/&gt;&lt;p style=&quot;margin:0px;margin-left:4px;&quot;&gt;+ field1: Type&lt;br/&gt;+ field2: Type&lt;/p&gt;&lt;hr size=&quot;1&quot;/&gt;&lt;p style=&quot;margin:0px;margin-left:4px;&quot;&gt;+ method1(Type): Type&lt;br/&gt;+ method2(Type, Type): Type&lt;/p&gt;" style="verticalAlign=top;align=left;overflow=fill;fontSize=12;fontFamily=Helvetica;html=1;rounded=0;shadow=0;comic=0;labelBackgroundColor=none;strokeWidth=1" vertex="1" parent="1">
          <mxGeometry x="-90" y="2308" width="190" height="140" as="geometry" />
        </mxCell>
        <mxCell id="9YRtBNZHPSvyfo0YGIun-20" value="TEST" style="whiteSpace=wrap;html=1;aspect=fixed;" vertex="1" parent="1">
          <mxGeometry x="-35" y="1920" width="80" height="80" as="geometry" />
        </mxCell>
        <mxCell id="9YRtBNZHPSvyfo0YGIun-21" value="vbxcb" style="rounded=0;whiteSpace=wrap;html=1;" vertex="1" parent="1">
          <mxGeometry x="220" y="1850" width="210" height="200" as="geometry" />
        </mxCell>
        <mxCell id="9YRtBNZHPSvyfo0YGIun-22" value="Vertical Container" style="swimlane;whiteSpace=wrap;html=1;startSize=40;" vertex="1" parent="1">
          <mxGeometry x="450" y="1840" width="200" height="200" as="geometry" />
        </mxCell>
        <mxCell id="9YRtBNZHPSvyfo0YGIun-23" value="&lt;p style=&quot;margin:0px;margin-top:4px;text-align:center;&quot;&gt;&lt;b&gt;Player&lt;/b&gt;&lt;/p&gt;&lt;hr size=&quot;1&quot;&gt;&lt;p style=&quot;border-color: var(--border-color); margin: 0px 0px 0px 4px;&quot;&gt;+ m_Data : AudioData&lt;/p&gt;&lt;p style=&quot;border-color: var(--border-color); margin: 0px 0px 0px 4px;&quot;&gt;&lt;br&gt;&lt;/p&gt;&lt;hr size=&quot;1&quot;&gt;&lt;p style=&quot;margin:0px;margin-left:4px;&quot;&gt;+ isValid() : bool [ == !error.empty()]&lt;/p&gt;&lt;p style=&quot;margin:0px;margin-left:4px;&quot;&gt;+ errorString() : string&lt;/p&gt;&lt;p style=&quot;margin:0px;margin-left:4px;&quot;&gt;&lt;br&gt;&lt;/p&gt;&lt;p style=&quot;margin:0px;margin-left:4px;&quot;&gt;+ volume() : uint&lt;/p&gt;&lt;p style=&quot;margin:0px;margin-left:4px;&quot;&gt;+ setVolume(uint) : void&lt;/p&gt;&lt;p style=&quot;margin:0px;margin-left:4px;&quot;&gt;&lt;br&gt;&lt;/p&gt;&lt;p style=&quot;border-color: var(--border-color); margin: 0px 0px 0px 4px;&quot;&gt;+ play(string fileName) : bool&lt;/p&gt;&lt;p style=&quot;border-color: var(--border-color); margin: 0px 0px 0px 4px;&quot;&gt;+ play(IO stream) : bool&lt;/p&gt;&lt;p style=&quot;margin:0px;margin-left:4px;&quot;&gt;&amp;nbsp;? pause()&lt;br style=&quot;border-color: var(--border-color);&quot;&gt;&lt;span style=&quot;border-color: var(--border-color); background-color: initial;&quot;&gt;&amp;nbsp;+ stop() : void&lt;/span&gt;&lt;br style=&quot;border-color: var(--border-color);&quot;&gt;&lt;/p&gt;&lt;p style=&quot;border-color: var(--border-color); margin: 0px 0px 0px 4px;&quot;&gt;&lt;br style=&quot;border-color: var(--border-color);&quot;&gt;&lt;/p&gt;&lt;p style=&quot;border-color: var(--border-color); margin: 0px 0px 0px 4px;&quot;&gt;+ isPlaying() : bool&lt;/p&gt;&lt;p style=&quot;border-color: var(--border-color); margin: 0px 0px 0px 4px;&quot;&gt;&lt;br style=&quot;border-color: var(--border-color);&quot;&gt;&lt;/p&gt;&lt;p style=&quot;border-color: var(--border-color); margin: 0px 0px 0px 4px;&quot;&gt;? open(OI stream) : bool&lt;/p&gt;&lt;p style=&quot;border-color: var(--border-color); margin: 0px 0px 0px 4px;&quot;&gt;&lt;br&gt;&lt;/p&gt;" style="verticalAlign=top;align=left;overflow=fill;html=1;whiteSpace=wrap;" vertex="1" parent="1">
          <mxGeometry x="-110" y="1270" width="259" height="300" as="geometry" />
        </mxCell>
        <mxCell id="9YRtBNZHPSvyfo0YGIun-24" value="&lt;p style=&quot;margin:0px;margin-top:4px;text-align:center;&quot;&gt;&lt;b&gt;Mixer&lt;/b&gt;&lt;/p&gt;&lt;hr size=&quot;1&quot;&gt;&lt;p style=&quot;border-color: var(--border-color); margin: 0px 0px 0px 4px;&quot;&gt;+ m_Data : AudioData&lt;/p&gt;&lt;p style=&quot;border-color: var(--border-color); margin: 0px 0px 0px 4px;&quot;&gt;&lt;br style=&quot;border-color: var(--border-color);&quot;&gt;&lt;/p&gt;&lt;hr size=&quot;1&quot;&gt;&lt;p style=&quot;margin:0px;margin-left:4px;&quot;&gt;+ isValid() : bool [ == !error.empty()]&lt;/p&gt;&lt;p style=&quot;margin:0px;margin-left:4px;&quot;&gt;+ errorString() : string&lt;/p&gt;&lt;p style=&quot;margin:0px;margin-left:4px;&quot;&gt;&lt;br&gt;&lt;/p&gt;&lt;p style=&quot;border-color: var(--border-color); margin: 0px 0px 0px 4px;&quot;&gt;+ volume() : uint&lt;/p&gt;&lt;p style=&quot;border-color: var(--border-color); margin: 0px 0px 0px 4px;&quot;&gt;+ setVolume(uint) : void&lt;/p&gt;&lt;p style=&quot;border-color: var(--border-color); margin: 0px 0px 0px 4px;&quot;&gt;&lt;br style=&quot;border-color: var(--border-color);&quot;&gt;&lt;/p&gt;&lt;p style=&quot;margin:0px;margin-left:4px;&quot;&gt;&lt;br&gt;&lt;/p&gt;" style="verticalAlign=top;align=left;overflow=fill;html=1;whiteSpace=wrap;" vertex="1" parent="1">
          <mxGeometry x="441" y="1270" width="259" height="240" as="geometry" />
        </mxCell>
        <mxCell id="9YRtBNZHPSvyfo0YGIun-25" value="&lt;p style=&quot;margin:0px;margin-top:4px;text-align:center;&quot;&gt;&lt;b&gt;AudioData&lt;/b&gt;&lt;/p&gt;&lt;hr size=&quot;1&quot;&gt;&lt;p style=&quot;border-color: var(--border-color); margin: 0px 0px 0px 4px;&quot;&gt;+ deviceName : string&lt;br style=&quot;border-color: var(--border-color);&quot;&gt;&lt;/p&gt;&lt;div style=&quot;border-color: var(--border-color);&quot;&gt;&amp;nbsp;+ deviceHandle: void*&lt;/div&gt;&lt;div style=&quot;border-color: var(--border-color);&quot;&gt;&amp;nbsp;+ mixer: void*&lt;br style=&quot;border-color: var(--border-color);&quot;&gt;&lt;/div&gt;&lt;p style=&quot;border-color: var(--border-color); margin: 0px 0px 0px 4px;&quot;&gt;&lt;br style=&quot;border-color: var(--border-color);&quot;&gt;&lt;/p&gt;&lt;p style=&quot;border-color: var(--border-color); margin: 0px 0px 0px 4px;&quot;&gt;+ channelCount : int&lt;/p&gt;&lt;p style=&quot;border-color: var(--border-color); margin: 0px 0px 0px 4px;&quot;&gt;+ bytesPerChannel : int&lt;/p&gt;&lt;p style=&quot;border-color: var(--border-color); margin: 0px 0px 0px 4px;&quot;&gt;+ frames : int&lt;/p&gt;&lt;p style=&quot;border-color: var(--border-color); margin: 0px 0px 0px 4px;&quot;&gt;&lt;br style=&quot;border-color: var(--border-color);&quot;&gt;&lt;/p&gt;&lt;p style=&quot;border-color: var(--border-color); margin: 0px 0px 0px 4px;&quot;&gt;+ error: string&lt;/p&gt;&lt;p style=&quot;border-color: var(--border-color); margin: 0px 0px 0px 4px;&quot;&gt;&lt;br style=&quot;border-color: var(--border-color);&quot;&gt;&lt;/p&gt;&lt;p style=&quot;border-color: var(--border-color); margin: 0px 0px 0px 4px;&quot;&gt;+ max : long&lt;/p&gt;&lt;p style=&quot;border-color: var(--border-color); margin: 0px 0px 0px 4px;&quot;&gt;+ min : long&lt;/p&gt;&lt;p style=&quot;border-color: var(--border-color); margin: 0px 0px 0px 4px;&quot;&gt;&lt;br style=&quot;border-color: var(--border-color);&quot;&gt;&lt;/p&gt;&lt;p style=&quot;border-color: var(--border-color); margin: 0px 0px 0px 4px;&quot;&gt;+ volume : uint (0 - 100)&lt;/p&gt;&lt;p style=&quot;border-color: var(--border-color); margin: 0px 0px 0px 4px;&quot;&gt;&lt;br style=&quot;border-color: var(--border-color);&quot;&gt;&lt;/p&gt;&lt;p style=&quot;border-color: var(--border-color); margin: 0px 0px 0px 4px;&quot;&gt;+ isPlaying : bool&lt;/p&gt;&lt;p style=&quot;border-color: var(--border-color); margin: 0px 0px 0px 4px;&quot;&gt;+ interrupt : bool&lt;/p&gt;" style="verticalAlign=top;align=left;overflow=fill;html=1;whiteSpace=wrap;" vertex="1" parent="1">
          <mxGeometry x="220.5" y="1120" width="179" height="290" as="geometry" />
        </mxCell>
        <mxCell id="9YRtBNZHPSvyfo0YGIun-26" value="Object" style="html=1;whiteSpace=wrap;" vertex="1" parent="1">
          <mxGeometry x="-210" y="1560" width="110" height="50" as="geometry" />
        </mxCell>
        <mxCell id="9YRtBNZHPSvyfo0YGIun-28" value="Division" style="whiteSpace=wrap;html=1;align=center;verticalAlign=middle;treeFolding=1;treeMoving=1;newEdgeStyle={&quot;edgeStyle&quot;:&quot;elbowEdgeStyle&quot;,&quot;startArrow&quot;:&quot;none&quot;,&quot;endArrow&quot;:&quot;none&quot;};" vertex="1" parent="1">
          <mxGeometry x="-910" y="2171" width="100" height="60" as="geometry" />
        </mxCell>
        <mxCell id="9YRtBNZHPSvyfo0YGIun-29" value="" style="edgeStyle=elbowEdgeStyle;elbow=vertical;sourcePerimeterSpacing=0;targetPerimeterSpacing=0;startArrow=none;endArrow=none;rounded=0;curved=0;" edge="1" parent="1">
          <mxGeometry relative="1" as="geometry">
            <mxPoint x="-670" y="2053" as="sourcePoint" />
            <mxPoint x="-860" y="2174" as="targetPoint" />
          </mxGeometry>
        </mxCell>
        <mxCell id="9YRtBNZHPSvyfo0YGIun-30" value="&lt;div align=&quot;left&quot;&gt;MAIN SETTINGS&lt;br&gt;&lt;/div&gt;&lt;div align=&quot;left&quot;&gt;- Make sound on PC Start&lt;/div&gt;&lt;div align=&quot;left&quot;&gt;- Make sound on Volume change&lt;/div&gt;&lt;div align=&quot;left&quot;&gt;- Turn on GUI sound effects&lt;br&gt;&lt;/div&gt;" style="whiteSpace=wrap;html=1;align=left;" vertex="1" parent="1">
          <mxGeometry x="-1290" y="1320" width="220" height="90" as="geometry" />
        </mxCell>
        <mxCell id="9YRtBNZHPSvyfo0YGIun-31" value="&lt;div align=&quot;left&quot;&gt;INPUT&lt;span style=&quot;white-space: pre;&quot;&gt;&#x9;&lt;/span&gt;&lt;br&gt;&lt;/div&gt;&lt;div align=&quot;left&quot;&gt;- Make sound on PC Start&lt;/div&gt;&lt;div align=&quot;left&quot;&gt;- Make sound on Volume change&lt;/div&gt;&lt;div align=&quot;left&quot;&gt;- Turn on GUI sound effects&lt;br&gt;&lt;/div&gt;" style="whiteSpace=wrap;html=1;" vertex="1" parent="1">
          <mxGeometry x="-500" y="1720" width="210" height="110" as="geometry" />
        </mxCell>
        <mxCell id="9YRtBNZHPSvyfo0YGIun-32" value="&lt;div align=&quot;left&quot;&gt;NOTIFICATIONS SOUND&lt;br&gt;&lt;/div&gt;&lt;div align=&quot;left&quot;&gt;- Devices&lt;/div&gt;&lt;div align=&quot;left&quot;&gt;&amp;nbsp;[ device_1, device_2, ... , device_N, ]&lt;/div&gt;&lt;div align=&quot;left&quot;&gt;- Volume Level&lt;div align=&quot;left&quot;&gt;- Volume On/Off&lt;/div&gt;&lt;/div&gt;&lt;div align=&quot;left&quot;&gt;- Balance / Mixer [&lt;span style=&quot;white-space: pre;&quot;&gt;Left | Center | Right&lt;/span&gt;]&lt;br&gt;&lt;/div&gt;" style="whiteSpace=wrap;html=1;" vertex="1" parent="1">
          <mxGeometry x="-1275" y="1509.9999999999998" width="250" height="108.69" as="geometry" />
        </mxCell>
        <mxCell id="9YRtBNZHPSvyfo0YGIun-33" value="&lt;div align=&quot;left&quot;&gt;OUTPUT&lt;br&gt;&lt;/div&gt;&lt;div align=&quot;left&quot;&gt;- Devices&lt;/div&gt;&lt;div align=&quot;left&quot;&gt;&amp;nbsp;[ device_1, device_2, ... , device_N, ]&lt;/div&gt;&lt;div align=&quot;left&quot;&gt;- Volume&lt;/div&gt;&lt;div align=&quot;left&quot;&gt;- Balance / Mixer&lt;br&gt;&lt;/div&gt;" style="whiteSpace=wrap;html=1;" vertex="1" parent="1">
          <mxGeometry x="-500" y="1852.6599999999999" width="230" height="108.69" as="geometry" />
        </mxCell>
        <mxCell id="9YRtBNZHPSvyfo0YGIun-35" value="&lt;div align=&quot;left&quot;&gt;APPLICATIONS SOUND&lt;br&gt;&lt;/div&gt;&lt;div align=&quot;left&quot;&gt;- Applications [ app_1, app_2, ... , app_N,]&lt;/div&gt;" style="whiteSpace=wrap;html=1;" vertex="1" parent="1">
          <mxGeometry x="-1270" y="1649.9999999999998" width="250" height="108.69" as="geometry" />
        </mxCell>
        <mxCell id="9YRtBNZHPSvyfo0YGIun-36" value="&lt;div&gt;&lt;br&gt;&lt;/div&gt;&lt;div&gt;Application 1&lt;/div&gt;&lt;div&gt;&lt;br&gt;&lt;/div&gt;&lt;div&gt;Application 2&lt;/div&gt;&lt;div&gt;&lt;br&gt;&lt;/div&gt;&lt;div&gt;Application N&lt;br&gt;&lt;/div&gt;&lt;div&gt;&lt;br&gt;&lt;/div&gt;&lt;div&gt;&lt;br&gt;&lt;/div&gt;&lt;div&gt;&lt;br&gt;&lt;/div&gt;&lt;div&gt;&lt;br&gt;&lt;/div&gt;&lt;div&gt;&lt;br&gt;&lt;/div&gt;&lt;div&gt;&lt;br&gt;&lt;/div&gt;&lt;div&gt;&lt;br&gt;&lt;/div&gt;&lt;div&gt;&lt;br&gt;&lt;/div&gt;&lt;div&gt;&lt;br&gt;&lt;/div&gt;&lt;div&gt;&lt;br&gt;&lt;/div&gt;&lt;div&gt;&lt;br&gt;&lt;/div&gt;&lt;div&gt;&lt;br&gt;&lt;/div&gt;&lt;div&gt;&lt;br&gt;&lt;/div&gt;&lt;div&gt;&lt;br&gt;&lt;/div&gt;&lt;div&gt;&lt;br&gt;&lt;/div&gt;&lt;div&gt;&lt;br&gt;&lt;/div&gt;&lt;div&gt;&lt;br&gt;&lt;/div&gt;&lt;div&gt;&lt;br&gt;&lt;/div&gt;" style="strokeWidth=2;html=1;shape=mxgraph.flowchart.multi-document;whiteSpace=wrap;" vertex="1" parent="1">
          <mxGeometry x="-1610" y="1630" width="180" height="320" as="geometry" />
        </mxCell>
        <mxCell id="9YRtBNZHPSvyfo0YGIun-37" value="&lt;div&gt;&lt;br&gt;&lt;/div&gt;&lt;div&gt;Device 1&lt;/div&gt;&lt;div&gt;&lt;br&gt;&lt;/div&gt;&lt;div&gt;Device 2&lt;/div&gt;&lt;div&gt;&lt;br&gt;&lt;/div&gt;&lt;div&gt;Device N&lt;br&gt;&lt;/div&gt;&lt;div&gt;&lt;br&gt;&lt;/div&gt;&lt;div&gt;&lt;br&gt;&lt;/div&gt;&lt;div&gt;&lt;br&gt;&lt;/div&gt;&lt;div&gt;&lt;br&gt;&lt;/div&gt;&lt;div&gt;&lt;br&gt;&lt;/div&gt;&lt;div&gt;&lt;br&gt;&lt;/div&gt;&lt;div&gt;&lt;br&gt;&lt;/div&gt;&lt;div&gt;&lt;br&gt;&lt;/div&gt;&lt;div&gt;&lt;br&gt;&lt;/div&gt;&lt;div&gt;&lt;br&gt;&lt;/div&gt;&lt;div&gt;&lt;br&gt;&lt;/div&gt;&lt;div&gt;&lt;br&gt;&lt;/div&gt;&lt;div&gt;&lt;br&gt;&lt;/div&gt;&lt;div&gt;&lt;br&gt;&lt;/div&gt;&lt;div&gt;&lt;br&gt;&lt;/div&gt;&lt;div&gt;&lt;br&gt;&lt;/div&gt;&lt;div&gt;&lt;br&gt;&lt;/div&gt;&lt;div&gt;&lt;br&gt;&lt;/div&gt;" style="strokeWidth=2;html=1;shape=mxgraph.flowchart.multi-document;whiteSpace=wrap;" vertex="1" parent="1">
          <mxGeometry x="-1610" y="1280" width="180" height="320" as="geometry" />
        </mxCell>
        <mxCell id="9YRtBNZHPSvyfo0YGIun-50" value="INPUTS" style="shape=umlFrame;whiteSpace=wrap;html=1;pointerEvents=0;width=90;height=35;" vertex="1" parent="1">
          <mxGeometry x="-1290" y="1445" width="430" height="405" as="geometry" />
        </mxCell>
      </root>
    </mxGraphModel>
  </diagram>
</mxfile>
